<?xml version="1.0" encoding="UTF-8" standalone="no"?>
<svg
   xmlns:dc="http://purl.org/dc/elements/1.1/"
   xmlns:cc="http://creativecommons.org/ns#"
   xmlns:rdf="http://www.w3.org/1999/02/22-rdf-syntax-ns#"
   xmlns:svg="http://www.w3.org/2000/svg"
   xmlns="http://www.w3.org/2000/svg"
   xmlns:xlink="http://www.w3.org/1999/xlink"
   xmlns:sodipodi="http://sodipodi.sourceforge.net/DTD/sodipodi-0.dtd"
   xmlns:inkscape="http://www.inkscape.org/namespaces/inkscape"
   id="svg1398"
   version="1.1"
   viewBox="0 0 33.866669 33.837746"
   height="15mm"
   width="18mm"
   sodipodi:docname="matlablogo.svg"
   inkscape:version="1.0.1 (3bc2e813f5, 2020-09-07)">
  <sodipodi:namedview
     pagecolor="#ffffff"
     bordercolor="#666666"
     borderopacity="1"
     objecttolerance="10"
     gridtolerance="10"
     guidetolerance="10"
     inkscape:pageopacity="0"
     inkscape:pageshadow="2"
     inkscape:window-width="1920"
     inkscape:window-height="1017"
     id="namedview44"
     showgrid="false"
     inkscape:zoom="4.6996443"
     inkscape:cx="45.512217"
     inkscape:cy="60.67984"
     inkscape:window-x="-8"
     inkscape:window-y="-8"
     inkscape:window-maximized="1"
     inkscape:current-layer="svg1398"
     inkscape:document-rotation="0" />
  <defs
     id="defs1392">
    <linearGradient
       gradientUnits="userSpaceOnUse"
       y2="334.44583"
       x2="514.85358"
       y1="135.04791"
       x1="571.25574"
       id="linearGradient2415-8"
       xlink:href="#linearGradient2413"
       gradientTransform="matrix(0.11098993,0,0,0.11098993,-11.648974,29.879465)" />
    <linearGradient
       id="linearGradient2413">
      <stop
         id="stop2409"
         offset="0"
         style="stop-color:#78c4ff;stop-opacity:1;" />
      <stop
         id="stop2411"
         offset="1"
         style="stop-color:#d7aeff;stop-opacity:1" />
    </linearGradient>
    <linearGradient
       gradientUnits="userSpaceOnUse"
       y2="363.72601"
       x2="506.33658"
       y1="114.47861"
       x1="572.56433"
       id="linearGradient2407-1"
       xlink:href="#linearGradient2405"
       gradientTransform="matrix(0.11098993,0,0,0.11098993,-11.648974,29.879465)" />
    <linearGradient
       id="linearGradient2405">
      <stop
         id="stop2401"
         offset="0"
         style="stop-color:#1a6cff;stop-opacity:1;" />
      <stop
         id="stop2403"
         offset="1"
         style="stop-color:#c522ff;stop-opacity:1" />
    </linearGradient>
  </defs>
  <metadata
     id="metadata1395">
    <rdf:RDF>
      <cc:Work
         rdf:about="">
        <dc:format>image/svg+xml</dc:format>
        <dc:type
           rdf:resource="http://purl.org/dc/dcmitype/StillImage" />
        <dc:title />
      </cc:Work>
    </rdf:RDF>
  </metadata>
  <g
     transform="translate(-32.120178,-42.039452)"
     id="layer1"
     style="fill:rgb(238,157,83);fill-opacity:1">
    <g
       id="g51"
       style="fill:rgb(238,157,83);fill-opacity:1">
      <path
         style="fill:rgb(238,157,83);fill-opacity:1;stroke-width:1"
         d="m 45.652017,66.065049 c -0.02986,-0.06957 -0.12034,-0.287579 -0.201055,-0.484471 -0.08071,-0.196892 -0.168282,-0.406591 -0.194594,-0.466 -0.02631,-0.05941 -0.07438,-0.167928 -0.106816,-0.241157 -0.03244,-0.07323 -0.07578,-0.172086 -0.09633,-0.219685 -0.113193,-0.262247 -0.151954,-0.347983 -0.382233,-0.845456 -0.124547,-0.269061 -0.553239,-1.124119 -0.710002,-1.416153 -0.05646,-0.105181 -0.09685,-0.195537 -0.08975,-0.20079 0.0071,-0.0052 0.186664,-0.06718 0.399027,-0.137621 0.482645,-0.160086 0.893426,-0.35616 1.260732,-0.601772 0.782032,-0.522935 1.451145,-1.340759 1.841192,-2.2504 0.04648,-0.108393 0.05206,-0.122327 0.133444,-0.332858 0.02547,-0.06591 0.05626,-0.143794 0.06842,-0.173084 0.01216,-0.02929 0.03954,-0.107181 0.06086,-0.173086 0.02132,-0.06591 0.05337,-0.155777 0.07123,-0.199715 0.01786,-0.04394 0.04225,-0.103851 0.05421,-0.133141 0.01196,-0.02929 0.06515,-0.185069 0.118206,-0.346172 0.05306,-0.161103 0.124085,-0.370802 0.157839,-0.465999 0.03375,-0.0952 0.106172,-0.31688 0.160929,-0.492628 0.05475,-0.175749 0.108846,-0.343508 0.120201,-0.3728 0.02315,-0.05972 0.134284,-0.415957 0.18691,-0.599142 0.01893,-0.06591 0.06096,-0.203709 0.09339,-0.306229 0.03243,-0.102519 0.07381,-0.240322 0.09194,-0.306228 0.01814,-0.06591 0.04815,-0.167759 0.06671,-0.226343 0.01856,-0.05858 0.04689,-0.154445 0.06297,-0.213027 0.01608,-0.05858 0.06047,-0.21436 0.09865,-0.346171 0.03818,-0.131812 0.08189,-0.287588 0.09714,-0.346171 0.01525,-0.05858 0.03735,-0.136471 0.04913,-0.173086 0.02196,-0.06827 0.08745,-0.303252 0.137306,-0.492628 0.02595,-0.09856 0.04411,-0.16455 0.124618,-0.452685 0.01637,-0.05858 0.05984,-0.220351 0.0966,-0.359485 0.111195,-0.420826 0.122532,-0.462929 0.146987,-0.545884 0.01295,-0.04394 0.06734,-0.247647 0.120864,-0.452686 0.05352,-0.205041 0.108853,-0.414739 0.122956,-0.465999 0.0141,-0.05126 0.0324,-0.123157 0.04065,-0.159772 0.0083,-0.03661 0.05058,-0.204374 0.09406,-0.372799 0.04348,-0.168426 0.08928,-0.35416 0.101789,-0.412742 0.01251,-0.05858 0.04265,-0.178412 0.06698,-0.266285 0.04238,-0.153069 0.06393,-0.239821 0.114058,-0.459343 0.02177,-0.09534 0.0556,-0.229531 0.109076,-0.432713 0.01349,-0.05126 0.03677,-0.147123 0.05173,-0.21303 0.01496,-0.06591 0.05766,-0.248643 0.09488,-0.406084 0.03722,-0.157442 0.09787,-0.415073 0.134772,-0.572514 0.0369,-0.15744 0.07884,-0.323056 0.0932,-0.368033 0.01436,-0.04498 0.02611,-0.104041 0.02611,-0.131251 0,-0.02721 0.01129,-0.08628 0.02511,-0.131253 0.02619,-0.08529 0.08498,-0.333081 0.133114,-0.56109 0.02832,-0.13412 0.143525,-0.654478 0.188663,-0.852114 0.01338,-0.05858 0.0546,-0.256299 0.09161,-0.439369 0.03701,-0.183073 0.07882,-0.386781 0.09291,-0.452687 0.01409,-0.06591 0.04976,-0.233664 0.07926,-0.372799 0.08064,-0.380321 0.143517,-0.555072 0.215803,-0.599749 0.04909,-0.03034 0.146514,0.05762 0.196573,0.177461 0.108892,0.260696 0.10667,0.253651 0.217018,0.688574 0.05017,0.197717 0.102472,0.401425 0.116237,0.452685 0.01376,0.05126 0.03727,0.147123 0.05223,0.213027 0.01496,0.06591 0.0583,0.25164 0.0963,0.412743 0.038,0.161103 0.07973,0.340846 0.09272,0.399428 0.05975,0.269475 0.111828,0.486175 0.13483,0.561091 0.01381,0.04498 0.02511,0.10404 0.02511,0.131251 0,0.02721 0.01131,0.08628 0.02511,0.131253 0.01381,0.04498 0.0444,0.165655 0.06797,0.268175 0.02358,0.10252 0.0532,0.22834 0.06584,0.2796 0.01957,0.07937 0.07714,0.328945 0.187361,0.81217 0.01336,0.05858 0.05539,0.238326 0.0934,0.399429 0.03801,0.161103 0.07995,0.340845 0.0932,0.399427 0.01325,0.05858 0.05519,0.238326 0.0932,0.399429 0.03801,0.161102 0.07973,0.340845 0.09272,0.399427 0.02402,0.108305 0.09242,0.403441 0.132701,0.572515 0.01221,0.05126 0.05369,0.231001 0.09218,0.399427 0.03849,0.168426 0.08104,0.35416 0.09455,0.412743 0.01351,0.05858 0.04337,0.190393 0.06635,0.292913 0.06054,0.270062 0.0939,0.413607 0.120682,0.519257 0.01299,0.05126 0.05459,0.231002 0.09243,0.399428 0.110638,0.492412 0.160804,0.710977 0.226144,0.985256 0.01221,0.05126 0.05369,0.231003 0.09218,0.399429 0.03849,0.168424 0.08104,0.354158 0.09455,0.41274 0.01351,0.05858 0.04337,0.190396 0.06635,0.292915 0.02298,0.10252 0.05346,0.237326 0.06774,0.299572 0.01427,0.06224 0.03722,0.164097 0.05099,0.226343 0.02912,0.131594 0.101835,0.444518 0.134592,0.57917 0.02482,0.102009 0.112497,0.492115 0.17656,0.785541 0.02238,0.10252 0.0509,0.228339 0.06337,0.2796 0.02912,0.119707 0.10266,0.43524 0.133427,0.572514 0.01313,0.05858 0.04268,0.190393 0.06566,0.292913 0.02298,0.10252 0.05288,0.234331 0.06644,0.292915 0.01356,0.05858 0.03872,0.172418 0.0559,0.252971 0.01719,0.08055 0.0416,0.180785 0.05424,0.222744 0.01265,0.04196 0.01644,0.08689 0.0084,0.09986 -0.008,0.01296 -0.08276,0.02384 -0.166111,0.02416 -0.137305,4.44e-4 -0.540043,0.06138 -0.862038,0.130233 -0.229276,0.04902 -0.71897,0.227071 -0.953787,0.346783 -0.512098,0.261074 -0.963881,0.569562 -1.464561,1.000036 -0.247755,0.213014 -0.877391,0.842729 -1.238312,1.238464 -0.10018,0.109843 -0.237008,0.259794 -0.304063,0.333227 -0.06705,0.07343 -0.199576,0.223217 -0.294494,0.332856 -0.09492,0.10964 -0.17887,0.205336 -0.186564,0.212658 -0.0077,0.0073 -0.07975,0.0912 -0.160115,0.1864 -0.08037,0.0952 -0.152692,0.179078 -0.160717,0.186401 -0.008,0.0073 -0.13342,0.151116 -0.278654,0.319541 -0.145235,0.168426 -0.27063,0.31222 -0.278655,0.319543 -0.008,0.0073 -0.08035,0.0912 -0.160717,0.1864 -0.08037,0.0952 -0.152207,0.179077 -0.15964,0.1864 -0.0074,0.0073 -0.121321,0.133142 -0.253085,0.279599 -0.352288,0.391573 -1.025644,1.057133 -1.347025,1.331427 -0.275354,0.235013 -0.341973,0.288699 -0.58356,0.470271 -0.174572,0.131204 -0.551491,0.368527 -0.585301,0.368527 -0.01598,0 -0.05348,-0.05692 -0.08335,-0.126484 z"
         id="path2394-4" />
      <path
         id="path2349-4"
         style="fill:rgb(238,157,83);fill-opacity:1;stroke-width:1"
         d="m 44.403412,54.881302 c 0.12449,-0.200956 0.239163,-0.389567 0.254832,-0.419136 0.01567,-0.02957 0.0606,-0.104449 0.09986,-0.166401 0.03925,-0.06195 0.07137,-0.11875 0.07137,-0.126214 0,-0.0075 0.0517,-0.09458 0.114899,-0.193586 0.0632,-0.09901 0.166425,-0.275878 0.2294,-0.393043 0.06297,-0.117166 0.123829,-0.225011 0.135233,-0.239656 0.02414,-0.03099 0.09939,-0.164543 0.240089,-0.426057 0.05516,-0.102521 0.14975,-0.276271 0.210206,-0.386113 0.189182,-0.343723 1.200456,-2.391984 1.200456,-2.431433 0,-0.0068 0.05991,-0.139744 0.133143,-0.295392 0.07323,-0.155647 0.133143,-0.288452 0.133143,-0.295124 0,-0.0067 0.03064,-0.08138 0.06809,-0.166031 0.03745,-0.08465 0.07817,-0.177868 0.09048,-0.20716 0.01232,-0.02929 0.0424,-0.09872 0.06686,-0.154285 0.133784,-0.303978 0.387025,-0.937591 0.387025,-0.968338 0,-0.06876 -0.04089,-0.03306 -0.156571,0.136692 -0.06415,0.09413 -0.136044,0.19271 -0.159772,0.219073 -0.02373,0.02636 -0.07846,0.09585 -0.12162,0.154423 -0.04316,0.05857 -0.08546,0.112485 -0.09399,0.119807 -0.0085,0.0073 -0.106995,0.12116 -0.218814,0.252972 -0.410279,0.483628 -1.173176,1.18496 -1.464083,1.345934 -0.140267,0.07761 -0.336589,0.1636 -0.727609,0.318677 -0.06259,0.02482 -0.338455,0.131049 -0.592485,0.228146 -0.53759,0.205479 -1.013142,0.520863 -1.51949,1.007725 -0.265629,0.255405 -0.669362,0.699332 -0.897895,0.987284 -0.05812,0.07323 -0.11166,0.139134 -0.118983,0.146457 -0.07506,0.07506 -0.264596,0.353987 -0.25314,0.372527 0.01765,0.02856 0.371562,0.302083 0.652569,0.504344 0.109842,0.07906 0.205705,0.151165 0.213028,0.160231 0.0073,0.0091 0.07922,0.06384 0.15977,0.121719 0.08055,0.05788 0.158441,0.114736 0.173086,0.126346 0.04289,0.03399 0.317099,0.241221 0.395954,0.299231 0.03982,0.02929 0.272578,0.205044 0.517249,0.390561 0.244669,0.185518 0.468818,0.33818 0.49811,0.339249 0.04046,0.0015 0.107654,-0.08587 0.279599,-0.363429 z m -5.45465,5.645249 c 0.07824,-0.04015 0.146252,-0.08208 0.151133,-0.0932 0.0049,-0.01111 0.01963,-0.02021 0.03277,-0.02021 0.04207,0 0.814897,-0.521427 0.997752,-0.673187 0.0288,-0.02391 0.147332,-0.11628 0.263393,-0.205273 0.539417,-0.413607 1.236117,-1.059768 1.837824,-1.704509 0.452947,-0.485341 1.345327,-1.615551 1.345605,-1.704226 8e-5,-0.02197 -0.284341,-0.252163 -0.632021,-0.511542 -0.347679,-0.25938 -0.662103,-0.495256 -0.698716,-0.524166 -0.03661,-0.02891 -0.37987,-0.287017 -0.762787,-0.57357 -0.693221,-0.518763 -0.790687,-0.574231 -0.8762,-0.498645 -0.01391,0.0123 -0.06724,0.03806 -0.118498,0.05725 -0.124948,0.04678 -0.22778,0.08934 -0.379166,0.156947 -0.06941,0.031 -0.133502,0.05636 -0.142433,0.05636 -0.0089,0 -0.05699,0.01797 -0.106805,0.03994 -0.04981,0.02197 -0.131321,0.05792 -0.181133,0.07989 -0.04981,0.02197 -0.09787,0.03994 -0.106804,0.03994 -0.0089,0 -0.07303,0.02516 -0.142433,0.05591 -0.12863,0.05699 -0.152402,0.0671 -0.339224,0.144241 -0.05858,0.02419 -0.127321,0.05496 -0.152752,0.06837 -0.02543,0.01341 -0.05806,0.02439 -0.0725,0.02439 -0.01444,0 -0.09549,0.0312 -0.180103,0.06933 -0.08461,0.03813 -0.177808,0.07909 -0.207101,0.09101 -1.287386,0.524247 -2.589647,1.059053 -2.696866,1.10754 -0.07729,0.03495 -0.152345,0.06355 -0.166789,0.06355 -0.01444,0 -0.04707,0.01058 -0.0725,0.02352 -0.02543,0.01294 -0.0762,0.03609 -0.11281,0.05146 -0.169989,0.07133 -0.284524,0.118817 -0.339514,0.140765 -0.117131,0.04675 -0.344981,0.142426 -0.476682,0.200157 -0.04615,0.02023 -0.09122,0.03678 -0.100146,0.03678 -0.0089,0 -0.07303,0.02536 -0.142433,0.05636 -0.245557,0.109659 -0.29419,0.130045 -0.310252,0.130045 -0.0089,0 -0.07303,0.02494 -0.142433,0.05542 -0.06941,0.03048 -0.16514,0.07223 -0.212738,0.09277 -0.0476,0.02054 -0.08615,0.04653 -0.08566,0.05775 4.44e-4,0.01122 0.163848,0.13424 0.363026,0.273374 0.199179,0.139134 0.386349,0.273941 0.415935,0.299571 0.02958,0.02563 0.06168,0.0466 0.07132,0.0466 0.0096,0 0.04076,0.02136 0.06915,0.04748 0.02839,0.02611 0.237354,0.179897 0.464363,0.341743 0.975804,0.695705 1.651564,1.1822 1.744169,1.255667 0.01465,0.01162 0.234971,0.169046 0.489611,0.349837 0.254639,0.180792 0.482313,0.344907 0.505942,0.364701 0.158169,0.132501 0.983247,0.700479 1.019102,0.701546 0.02428,7.77e-4 0.108158,-0.03153 0.186399,-0.07168 z m 6.45888,6.914184 c 0.304777,-0.109955 0.630135,-0.265769 0.895163,-0.428695 0.114664,-0.07049 0.214348,-0.128164 0.221521,-0.128164 0.01779,0 0.440885,-0.301607 0.606933,-0.43266 0.645895,-0.509774 1.482009,-1.33124 2.242855,-2.203565 0.347327,-0.398216 0.50679,-0.582354 0.714863,-0.825483 0.131607,-0.153779 0.251268,-0.292895 0.265913,-0.309148 0.01465,-0.01625 0.06258,-0.0704 0.106515,-0.120338 1.344086,-1.527506 1.926051,-2.088457 2.662854,-2.566699 0.483483,-0.313819 0.837355,-0.465722 1.408423,-0.604578 0.208653,-0.05074 0.315106,-0.05889 0.761803,-0.05834 0.520926,5.55e-4 0.550181,0.0043 0.971942,0.120784 0.110461,0.03052 0.11767,0.03311 0.359484,0.129485 0.30012,0.119607 0.91891,0.467624 1.113321,0.62615 0.02476,0.02019 0.146874,0.116451 0.271363,0.213914 0.264737,0.207267 0.734506,0.637879 1.281506,1.174693 0.462908,0.454287 0.517489,0.481148 0.385829,0.189868 -0.120633,-0.266887 -0.170124,-0.381077 -0.268645,-0.619842 -0.05439,-0.131812 -0.120592,-0.287589 -0.147117,-0.346171 -0.02652,-0.05858 -0.116452,-0.274274 -0.199838,-0.479314 -0.08339,-0.205039 -0.180391,-0.436037 -0.215562,-0.513328 -0.03517,-0.07729 -0.06395,-0.152345 -0.06395,-0.166789 0,-0.01444 -0.01058,-0.04707 -0.02352,-0.0725 -0.0316,-0.06212 -0.05965,-0.130291 -0.188829,-0.458981 -0.06044,-0.15378 -0.120096,-0.303566 -0.132572,-0.332856 -0.01248,-0.02929 -0.04957,-0.125156 -0.08244,-0.21303 -0.03287,-0.08787 -0.07492,-0.195719 -0.09345,-0.239656 -0.01853,-0.04394 -0.107697,-0.277604 -0.198138,-0.519257 -0.09044,-0.241653 -0.174414,-0.463336 -0.186608,-0.492628 -0.01219,-0.02929 -0.05404,-0.143129 -0.09301,-0.252971 -0.03896,-0.109843 -0.0809,-0.223679 -0.0932,-0.252971 -0.0123,-0.02929 -0.05443,-0.143129 -0.09364,-0.252971 -0.132399,-0.37096 -0.205479,-0.572267 -0.227173,-0.625771 -0.03241,-0.07993 -0.121203,-0.335236 -0.240794,-0.692342 -0.05886,-0.175747 -0.117341,-0.343508 -0.129966,-0.372798 -0.01262,-0.02929 -0.02884,-0.07722 -0.03602,-0.106515 -0.0072,-0.02929 -0.07471,-0.227009 -0.150045,-0.439372 -0.07534,-0.212362 -0.173042,-0.493958 -0.217123,-0.62577 -0.04408,-0.13181 -0.0904,-0.263622 -0.102926,-0.292913 -0.01253,-0.02929 -0.02866,-0.07722 -0.03585,-0.106515 -0.0072,-0.02929 -0.07497,-0.227008 -0.150617,-0.43937 -0.07565,-0.212363 -0.15977,-0.452019 -0.186931,-0.532571 -0.04906,-0.145508 -0.247699,-0.709524 -0.384497,-1.09177 -0.03931,-0.109844 -0.08951,-0.253638 -0.111561,-0.319543 -0.05274,-0.15764 -0.168073,-0.478606 -0.196159,-0.545885 -0.01223,-0.02929 -0.04364,-0.119162 -0.06981,-0.199714 -0.02617,-0.08055 -0.05714,-0.157841 -0.06883,-0.171755 -0.01169,-0.01391 -0.02126,-0.04703 -0.02126,-0.07359 0,-0.02656 -0.01124,-0.0691 -0.02497,-0.09453 -0.01374,-0.02543 -0.05568,-0.133115 -0.0932,-0.239297 -0.149919,-0.42422 -0.206636,-0.581546 -0.227998,-0.632427 -0.03055,-0.07278 -0.14751,-0.399507 -0.195405,-0.545885 -0.02156,-0.06591 -0.05382,-0.155778 -0.07167,-0.199714 -0.06507,-0.16012 -0.06588,-0.162292 -0.362707,-0.971941 -0.08124,-0.221607 -0.181135,-0.483486 -0.248857,-0.6524 -0.01174,-0.02929 -0.03634,-0.0952 -0.05466,-0.146457 -0.01832,-0.05126 -0.04812,-0.129148 -0.06623,-0.173086 -0.0181,-0.04394 -0.06,-0.151782 -0.09311,-0.239657 -0.07772,-0.206303 -0.110593,-0.285841 -0.195646,-0.473384 -0.03837,-0.08461 -0.06977,-0.16566 -0.06977,-0.180103 0,-0.01445 -0.01098,-0.04707 -0.02439,-0.0725 -0.01342,-0.02543 -0.04221,-0.08818 -0.06398,-0.139439 -0.453472,-1.067465 -0.901572,-1.879225 -1.220826,-2.21161 -0.259339,-0.270005 -0.416628,-0.354118 -0.657949,-0.351845 -0.374954,0.0035 -0.671498,0.333664 -1.118639,1.245343 -0.0862,0.175748 -0.174691,0.361482 -0.196653,0.412741 -0.02196,0.05126 -0.06384,0.147124 -0.09307,0.21303 -0.02923,0.06591 -0.103432,0.245647 -0.164895,0.399427 -0.06146,0.15378 -0.121658,0.303566 -0.133765,0.332857 -0.01211,0.02929 -0.05454,0.137137 -0.09428,0.239656 -0.03975,0.10252 -0.08169,0.210366 -0.0932,0.239658 -0.01151,0.02929 -0.05364,0.137136 -0.09363,0.239656 -0.03998,0.10252 -0.08908,0.22416 -0.109104,0.270311 -0.02002,0.04615 -0.03641,0.09122 -0.03641,0.100147 0,0.0089 -0.02516,0.07302 -0.05591,0.142432 -0.03075,0.06941 -0.06605,0.150161 -0.07843,0.179452 -0.08473,0.200367 -0.180412,0.416447 -0.318369,0.718971 -0.04007,0.08787 -0.165416,0.387446 -0.278541,0.665714 -0.113126,0.278267 -0.221522,0.54189 -0.240881,0.585826 -0.01936,0.04394 -0.0796,0.187732 -0.133865,0.319543 -0.05427,0.131811 -0.122591,0.29358 -0.151831,0.359486 -0.02924,0.06591 -0.0687,0.155777 -0.08768,0.199714 -0.01898,0.04394 -0.06993,0.157774 -0.113203,0.252971 -0.04328,0.0952 -0.105312,0.232999 -0.137851,0.306228 -0.03254,0.07323 -0.09528,0.211032 -0.139436,0.306228 -0.136057,0.293357 -0.972461,1.972079 -1.087922,2.183541 -0.05998,0.109842 -0.154599,0.283592 -0.210272,0.386114 -0.135001,0.2486 -0.232745,0.422829 -0.324792,0.578943 -0.04185,0.07098 -0.0761,0.135096 -0.0761,0.142477 0,0.0074 -0.04194,0.07898 -0.0932,0.159117 -0.05126,0.08013 -0.0932,0.151585 -0.0932,0.158783 0,0.0072 -0.05992,0.10869 -0.133144,0.225535 -0.07323,0.116845 -0.133141,0.218064 -0.133141,0.224931 0,0.0069 -0.08388,0.145305 -0.1864,0.30764 -0.10252,0.162334 -0.186401,0.300896 -0.186401,0.307918 0,0.02188 -0.145367,0.237482 -0.166428,0.246843 -0.01098,0.0049 -0.01997,0.0205 -0.01997,0.03471 0,0.0552 -0.605211,0.954377 -0.983169,1.460712 -0.252907,0.338809 -0.250862,0.336215 -0.472453,0.599352 -0.08633,0.102521 -0.182266,0.219301 -0.213186,0.259514 -0.344067,0.447481 -1.44804,1.529732 -2.098461,2.057169 -0.07224,0.05858 -0.173302,0.144042 -0.224577,0.189908 l -0.09323,0.08339 0.121629,0.05541 c 0.318535,0.14511 0.82152,0.60232 1.158559,1.053119 0.225841,0.302071 0.54978,0.78682 0.660315,0.988112 0.04021,0.07323 0.08255,0.145126 0.09409,0.159771 0.05584,0.07089 0.668918,1.269337 0.797152,1.558264 0.03563,0.08028 0.116515,0.256228 0.179742,0.390996 0.06323,0.134766 0.114962,0.250891 0.114962,0.258052 0,0.0072 0.04571,0.112587 0.101589,0.23428 0.05587,0.121694 0.117708,0.263202 0.13741,0.314463 0.0197,0.05126 0.04588,0.104583 0.05818,0.118496 0.0123,0.01391 0.02236,0.04055 0.02236,0.05919 0,0.01864 0.02996,0.100123 0.06657,0.181075 0.03662,0.08095 0.09653,0.213418 0.133143,0.294369 0.03661,0.08095 0.06657,0.159003 0.06657,0.173447 0,0.01444 0.01058,0.04707 0.02352,0.0725 0.02304,0.04529 0.03351,0.06947 0.123849,0.285895 0.06543,0.156744 0.07521,0.180807 0.230028,0.565713 0.104437,0.259652 0.153887,0.352723 0.187459,0.352827 0.02508,0 0.114953,-0.02488 0.199715,-0.05545 z m -0.696819,1.105047 c -0.173427,-0.0635 -0.230865,-0.135638 -0.358559,-0.450308 -0.01188,-0.02929 -0.03403,-0.08321 -0.04921,-0.119828 -0.01518,-0.03661 -0.06032,-0.150451 -0.100299,-0.252971 -0.03998,-0.102519 -0.08908,-0.22416 -0.109103,-0.270308 -0.02002,-0.04615 -0.03641,-0.09122 -0.03641,-0.100148 0,-0.0089 -0.02516,-0.07303 -0.05591,-0.142433 -0.03075,-0.06941 -0.06589,-0.150162 -0.07809,-0.179453 -0.01219,-0.02929 -0.04218,-0.101187 -0.06663,-0.159771 -0.02445,-0.05858 -0.054,-0.13048 -0.06566,-0.159771 -0.02348,-0.05898 -0.09459,-0.229883 -0.138508,-0.332857 -0.01561,-0.03661 -0.04037,-0.09653 -0.05502,-0.133143 -0.05796,-0.144891 -0.07216,-0.178583 -0.137814,-0.326989 -0.03745,-0.08465 -0.06809,-0.158665 -0.06809,-0.164484 0,-0.0058 -0.04194,-0.101376 -0.0932,-0.212351 -0.05126,-0.110975 -0.0932,-0.207003 -0.0932,-0.213397 0,-0.0064 -0.04922,-0.117184 -0.109371,-0.2462 -0.06016,-0.129018 -0.144904,-0.312466 -0.188333,-0.407663 -0.188636,-0.413487 -0.709751,-1.426045 -0.796924,-1.548468 -0.02772,-0.03893 -0.0504,-0.07849 -0.0504,-0.08792 0,-0.0094 -0.04194,-0.0827 -0.0932,-0.162833 -0.05126,-0.08013 -0.0932,-0.15196 -0.0932,-0.159617 0,-0.0077 -0.01297,-0.02839 -0.02882,-0.04608 -0.01585,-0.01769 -0.07277,-0.09976 -0.126485,-0.182374 -0.424649,-0.653128 -0.782794,-1.03018 -1.139201,-1.199342 -0.109452,-0.05195 -0.170299,-0.06135 -0.38309,-0.05922 -0.388083,0.0039 -0.643711,0.08955 -1.171655,0.392573 -0.06793,0.03899 -0.143737,0.05391 -0.279601,0.05503 -0.216005,0.0018 -0.159541,0.03379 -0.958362,-0.543348 -0.273659,-0.197717 -0.531323,-0.383453 -0.572587,-0.412743 -0.04126,-0.02929 -0.299527,-0.215025 -0.573917,-0.412743 -0.27439,-0.197716 -0.723733,-0.521253 -0.99854,-0.718969 -0.274806,-0.197719 -0.723532,-0.521254 -0.997167,-0.718972 -0.273635,-0.197716 -0.531458,-0.38345 -0.57294,-0.412741 -0.04148,-0.02929 -0.34177,-0.244983 -0.667305,-0.479315 -0.325537,-0.23433 -0.720212,-0.51802 -0.877057,-0.63042 -0.345216,-0.247394 -0.407857,-0.335532 -0.406782,-0.572349 8.88e-4,-0.178967 0.05161,-0.280734 0.188268,-0.377194 0.03969,-0.02802 0.401697,-0.185394 0.804454,-0.349727 0.402757,-0.164334 0.783722,-0.32193 0.846589,-0.350216 0.06287,-0.02829 0.164721,-0.07039 0.226343,-0.09357 0.06162,-0.02318 0.175275,-0.07081 0.252565,-0.105846 0.07729,-0.03504 0.152347,-0.0637 0.166789,-0.0637 0.01444,0 0.04707,-0.01098 0.0725,-0.02439 0.02543,-0.01342 0.09417,-0.04418 0.152752,-0.06837 0.05858,-0.02419 0.133476,-0.05516 0.166429,-0.06881 0.03295,-0.01365 0.08687,-0.03559 0.119828,-0.04874 0.05499,-0.02195 0.169526,-0.06944 0.339513,-0.140765 0.03662,-0.01536 0.08738,-0.03852 0.112812,-0.05146 0.02543,-0.01294 0.05806,-0.02352 0.0725,-0.02352 0.02449,0 0.276154,-0.107272 0.380185,-0.162052 0.02543,-0.01339 0.05806,-0.02435 0.0725,-0.02435 0.01444,0 0.0895,-0.02884 0.166789,-0.06409 0.07729,-0.03525 0.703722,-0.294018 1.39207,-0.57504 0.688348,-0.281023 1.287489,-0.52654 1.331425,-0.545596 0.04394,-0.01905 0.145792,-0.06127 0.226343,-0.09381 0.08055,-0.03254 0.209696,-0.08771 0.286986,-0.1226 0.07729,-0.03489 0.152345,-0.06343 0.166789,-0.06343 0.01444,0 0.04707,-0.01058 0.0725,-0.02352 0.02543,-0.01294 0.07619,-0.03609 0.112809,-0.05146 0.191974,-0.08056 0.284786,-0.118846 0.332856,-0.137321 0.175168,-0.06732 0.359638,-0.172288 0.372167,-0.211765 0.008,-0.02522 0.03561,-0.06894 0.06135,-0.09716 0.02573,-0.02821 0.111642,-0.141166 0.190908,-0.251009 0.432177,-0.598898 1.112432,-1.351614 1.572228,-1.739698 0.124375,-0.104979 0.250196,-0.212657 0.2796,-0.239286 0.0294,-0.02663 0.185272,-0.135611 0.346375,-0.242182 0.32475,-0.214826 0.640404,-0.375143 0.971942,-0.493637 0.05126,-0.01832 0.117165,-0.04265 0.146457,-0.05406 0.05299,-0.02065 0.244584,-0.09476 0.346171,-0.133913 0.323131,-0.124522 0.57831,-0.234885 0.665713,-0.287916 0.270282,-0.163996 0.897351,-0.754841 1.262634,-1.189697 0.726189,-0.864504 2.245378,-3.091411 2.942875,-4.313823 0.08562,-0.15006 0.411387,-0.633765 0.529042,-0.785542 0.278385,-0.359116 0.705351,-0.740505 0.990584,-0.88484 0.180431,-0.0913 0.493656,-0.180301 0.634559,-0.180301 0.15617,0 0.511728,0.0602 0.643611,0.108974 0.347865,0.128646 0.695779,0.394152 0.977717,0.746132 0.118799,0.148312 0.393654,0.545957 0.393654,0.569518 0,0.0067 0.03968,0.07543 0.08817,0.1526 0.07858,0.125038 0.398068,0.76082 0.505406,1.005743 0.02247,0.05126 0.07889,0.17708 0.125391,0.2796 0.09224,0.203358 0.153448,0.343271 0.186399,0.426057 0.01166,0.02929 0.0412,0.101188 0.06566,0.159771 0.02445,0.05858 0.05441,0.13048 0.06657,0.159771 0.01216,0.02929 0.03982,0.0952 0.06145,0.146457 0.02164,0.05126 0.107946,0.272943 0.191799,0.492628 0.08385,0.219685 0.167427,0.435377 0.185722,0.479314 0.01829,0.04394 0.04825,0.121826 0.06657,0.173085 0.01832,0.05126 0.04287,0.117166 0.05456,0.146457 0.01169,0.02929 0.03624,0.0952 0.05457,0.146457 0.01832,0.05126 0.04868,0.129148 0.06746,0.173086 0.01878,0.04394 0.0518,0.133808 0.07337,0.199713 0.02157,0.06591 0.05383,0.155778 0.07168,0.199715 0.06234,0.153384 0.0753,0.187755 0.145662,0.386114 0.03896,0.109843 0.0809,0.223679 0.0932,0.252971 0.02062,0.04911 0.126642,0.343585 0.191751,0.532571 0.01514,0.04394 0.043,0.115833 0.06192,0.15977 0.01892,0.04394 0.06503,0.169757 0.102475,0.2796 0.03744,0.109842 0.117129,0.337517 0.177081,0.505942 0.05995,0.168425 0.126873,0.360151 0.148716,0.426057 0.02184,0.06591 0.04982,0.143793 0.06218,0.173086 0.01236,0.02929 0.04264,0.113171 0.0673,0.186398 0.02465,0.07323 0.05492,0.15711 0.06725,0.1864 0.02778,0.06597 0.1425,0.384914 0.19635,0.545886 0.02205,0.06591 0.07225,0.209699 0.111562,0.319543 0.174244,0.48688 0.342325,0.969489 0.440515,1.264854 0.05842,0.17575 0.116653,0.343509 0.129396,0.372801 0.01274,0.02929 0.02937,0.07722 0.03695,0.106513 0.0076,0.02929 0.07505,0.227008 0.149935,0.439371 0.07488,0.212363 0.188712,0.541892 0.252953,0.732285 0.06424,0.190394 0.178388,0.519922 0.253653,0.732285 0.07527,0.212362 0.159342,0.45202 0.186833,0.532571 0.06759,0.198028 0.249629,0.707372 0.29979,0.838798 0.02236,0.05858 0.08458,0.226343 0.138282,0.3728 0.09319,0.254165 0.154581,0.416233 0.201751,0.532571 0.01187,0.02929 0.08946,0.233 0.172414,0.452685 0.128305,0.339806 0.304079,0.789766 0.384881,0.985256 0.01211,0.02929 0.05474,0.137136 0.09474,0.239656 0.04,0.102521 0.09509,0.237196 0.122416,0.299281 0.02733,0.06208 0.04969,0.120189 0.04969,0.129119 0,0.0089 0.01797,0.05699 0.03994,0.106804 0.02197,0.04981 0.05792,0.131323 0.07989,0.181135 0.02197,0.04981 0.03994,0.09787 0.03994,0.106803 0,0.0089 0.02536,0.07303 0.05636,0.142433 0.031,0.06941 0.07375,0.168136 0.095,0.219396 0.02126,0.05126 0.05142,0.123156 0.06704,0.15977 0.01561,0.03661 0.03755,0.09054 0.04874,0.119829 0.0112,0.02929 0.04036,0.101189 0.06481,0.159772 0.02445,0.05858 0.05444,0.13048 0.06663,0.15977 0.0122,0.02929 0.0485,0.113172 0.08067,0.186401 0.03217,0.07323 0.07387,0.16909 0.09265,0.213027 0.01879,0.04394 0.06555,0.149115 0.103926,0.233728 0.03837,0.08461 0.06977,0.159456 0.06977,0.166317 0,0.0069 0.04194,0.10327 0.0932,0.214243 0.05126,0.110975 0.0932,0.206588 0.0932,0.212475 0,0.0059 0.03436,0.0859 0.07636,0.177798 0.042,0.0919 0.103497,0.227009 0.136668,0.300238 0.13288,0.293348 0.350145,0.7612 0.500819,1.078456 0.06329,0.133255 0.05416,0.361228 -0.01939,0.484316 -0.08713,0.145823 -0.221811,0.216166 -0.415789,0.217176 -0.14749,7.77e-4 -0.177052,-0.0097 -0.359485,-0.127606 -0.549051,-0.354766 -1.302958,-0.989426 -2.15492,-1.814074 -0.531889,-0.514835 -0.842899,-0.804103 -0.999945,-0.930038 -0.07306,-0.05858 -0.138818,-0.113866 -0.146141,-0.12285 -0.08203,-0.100637 -0.972039,-0.662693 -1.049374,-0.662693 -0.01746,0 -0.04313,-0.01089 -0.05704,-0.02419 -0.03045,-0.02913 -0.369302,-0.141574 -0.566709,-0.188065 -0.195763,-0.0461 -0.724871,-0.04026 -0.971751,0.01073 -0.895522,0.184975 -1.658626,0.734739 -2.882027,2.076302 -0.145641,0.159709 -0.276877,0.303503 -0.291635,0.319542 -0.02836,0.03083 -0.566148,0.648101 -0.663392,0.761447 -0.508271,0.592424 -0.795453,0.923446 -1.038728,1.197291 -0.353084,0.397452 -1.306652,1.364686 -1.555288,1.577574 -0.09761,0.08358 -0.213419,0.183091 -0.257355,0.221146 -0.133207,0.11537 -0.638482,0.5087 -0.721265,0.561468 -0.04268,0.0272 -0.08358,0.05619 -0.09091,0.06441 -0.05788,0.06502 -0.568693,0.364681 -0.938094,0.550321 -0.415473,0.20879 -0.688674,0.309001 -1.142554,0.419086 -0.322032,0.07811 -0.343382,0.07926 -0.487824,0.02637 z" />
    </g>
  </g>
</svg>
